<svg xmlns="http://www.w3.org/2000/svg" xmlns:xlink="http://www.w3.org/1999/xlink" version="1.1" x="0px" y="0px" viewBox="0 0 100 125" style="enable-background:new 0 0 100 100;" xml:space="preserve"><g><path d="M25,43.4c0,8,3,15.3,7.9,20.9L11.8,85.4l2.8,2.8l21.1-21.1C41.3,72,48.6,75,56.6,75C74,75,88.2,60.8,88.2,43.4   S74,11.8,56.6,11.8S25,26,25,43.4z M84.2,43.4C84.2,58.6,71.8,71,56.6,71S29,58.6,29,43.4s12.4-27.6,27.6-27.6S84.2,28.2,84.2,43.4   z"/></g><text x="0" y="115" fill="#000000" font-size="5px" font-weight="bold" font-family="'Helvetica Neue', Helvetica, Arial-Unicode, Arial, Sans-serif"></text><text x="0" y="120" fill="#000000" font-size="5px" font-weight="bold" font-family="'Helvetica Neue', Helvetica, Arial-Unicode, Arial, Sans-serif"></text></svg>

